# xmcd
#
# Track frame offsets:
#	150
#	16130
#	31626
#	45717
#	58964
#	75359
#	88560
#	104225
#	120436
#	139347
#	152205
#	169519
#	186685
#	203065
#
# Disc length: 2914 seconds
#
# Revision: 1
# Processed by: cddbd v1.5.2PL0 Copyright (c) Steve Scherf et al.
# Submitted via: audiograbber 1.83.01
#
DISCID=b80b600e
DTITLE=Various Artist - Mr Music Country 2016-01
DYEAR=1900
DGENRE=Country
TTITLE0=Steve Holy - Hauled off and kissed me
TTITLE1=Ashley Gearing - Me, my heart and I
TTITLE2=Dylan Scott - Makin' this boy go crazy
TTITLE3=Trick Pony - Ain't wastin' good whiskey on you
TTITLE4=Baker and Myers - A little bit of honey
TTITLE5=American Young - Love is war
TTITLE6=Rio Grand - Beckets's back forty
TTITLE7=Bomshel - Bomshel stomp
TTITLE8=Tim McGraw - Suspicious
TTITLE9=Jo Dee Messina - You're not in Kansas anymore
TTITLE10=Blue County - Firecrackers and ferrishwheels
TTITLE11=Lisa Brokop - Hey, do you know me
TTITLE12=Clay Walker - Fore she was mama
TTITLE13=Cowboy Crush - Nobody ever died of a broken heart
EXTD=
EXTT0=
EXTT1=
EXTT2=
EXTT3=
EXTT4=
EXTT5=
EXTT6=
EXTT7=
EXTT8=
EXTT9=
EXTT10=
EXTT11=
EXTT12=
EXTT13=
PLAYORDER=
